<?xml version="1.0" encoding="UTF-8" standalone="no"?>
<!DOCTYPE svg PUBLIC "-//W3C//DTD SVG 1.1//EN" "http://www.w3.org/Graphics/SVG/1.1/DTD/svg11.dtd">
<!-- Created with Vectornator (http://vectornator.io/) -->
<svg height="100%" stroke-miterlimit="10" style="fill-rule:nonzero;clip-rule:evenodd;stroke-linecap:round;stroke-linejoin:round;" version="1.1" viewBox="155.777 76.9375 293.652 245.831" width="100%" xml:space="preserve" xmlns="http://www.w3.org/2000/svg" xmlns:vectornator="http://vectornator.io" xmlns:xlink="http://www.w3.org/1999/xlink">
<defs>
<radialGradient cx="0" cy="0" gradientTransform="matrix(-0.319613 -33.9757 26.3037 -0.319613 308.236 109.464)" gradientUnits="userSpaceOnUse" id="RadialGradient" r="1">
<stop offset="0.0826867" stop-color="#ca00d5"/>
<stop offset="1" stop-color="#35008a"/>
</radialGradient>
<radialGradient cx="0" cy="0" gradientTransform="matrix(3.42711 -68.8412 68.8412 3.42711 306.042 237.975)" gradientUnits="userSpaceOnUse" id="RadialGradient_2" r="1">
<stop offset="0.0826867" stop-color="#ca00d5"/>
<stop offset="1" stop-color="#35008a"/>
</radialGradient>
<g id="Fill">
<path d="M177.947 180.31C177.947 182.166 178.299 183.91 179.003 185.542C179.707 187.174 180.667 188.598 181.883 189.814C183.099 191.03 184.523 191.99 186.155 192.694C187.787 193.398 189.531 193.75 191.387 193.75C193.243 193.75 194.987 193.398 196.619 192.694C198.251 191.99 199.675 191.03 200.891 189.814C202.107 188.598 203.067 187.174 203.771 185.542C204.475 183.91 204.827 182.166 204.827 180.31C204.827 178.454 204.475 176.71 203.771 175.078C203.067 173.446 202.107 172.022 200.891 170.806C199.675 169.59 198.251 168.63 196.619 167.926C194.987 167.222 193.243 166.87 191.387 166.87C189.531 166.87 187.787 167.222 186.155 167.926C184.523 168.63 183.099 169.59 181.883 170.806C180.667 172.022 179.707 173.446 179.003 175.078C178.299 176.71 177.947 178.454 177.947 180.31ZM191.387 202.39C188.315 202.39 185.451 201.814 182.795 200.662C180.139 199.51 177.803 197.926 175.787 195.91C173.771 193.894 172.187 191.558 171.035 188.902C169.883 186.246 169.307 183.382 169.307 180.31C169.307 177.238 169.883 174.374 171.035 171.718C172.187 169.062 173.771 166.726 175.787 164.71C177.803 162.694 180.139 161.11 182.795 159.958C185.451 158.806 188.315 158.23 191.387 158.23C194.459 158.23 197.323 158.806 199.979 159.958C202.635 161.11 204.971 162.694 206.987 164.71C209.003 166.726 210.587 169.062 211.739 171.718C212.891 174.374 213.467 177.238 213.467 180.31C213.467 183.382 212.891 186.246 211.739 188.902C210.587 191.558 209.003 193.894 206.987 195.91C204.971 197.926 202.635 199.51 199.979 200.662C197.323 201.814 194.459 202.39 191.387 202.39ZM157.787 180.31C157.787 175.702 158.667 171.35 160.427 167.254C162.187 163.158 164.587 159.59 167.627 156.55C170.667 153.51 174.235 151.11 178.331 149.35C182.427 147.59 186.779 146.71 191.387 146.71C195.995 146.71 200.347 147.59 204.443 149.35C208.539 151.11 212.107 153.51 215.147 156.55C218.187 159.59 220.587 163.158 222.347 167.254C224.107 171.35 224.987 175.702 224.987 180.31C224.987 183.062 224.667 185.718 224.027 188.278C223.387 190.838 222.491 193.238 221.339 195.478L227.291 195.478L218.651 212.278L201.659 212.278C198.267 213.366 194.843 213.91 191.387 213.91C186.779 213.91 182.427 213.03 178.331 211.27C174.235 209.51 170.667 207.11 167.627 204.07C164.587 201.03 162.187 197.462 160.427 193.366C158.667 189.27 157.787 184.918 157.787 180.31ZM201.755 202.582C203.867 201.622 205.787 200.374 207.515 198.838C209.243 197.302 210.731 195.574 211.979 193.654C213.227 191.734 214.203 189.638 214.907 187.366C215.611 185.094 215.963 182.742 215.963 180.31C215.963 176.918 215.323 173.734 214.043 170.758C212.763 167.782 211.003 165.174 208.763 162.934C206.523 160.694 203.915 158.934 200.939 157.654C197.963 156.374 194.779 155.734 191.387 155.734C187.995 155.734 184.811 156.374 181.835 157.654C178.859 158.934 176.251 160.694 174.011 162.934C171.771 165.174 170.011 167.782 168.731 170.758C167.451 173.734 166.811 176.918 166.811 180.31C166.811 183.702 167.451 186.886 168.731 189.862C170.011 192.838 171.771 195.446 174.011 197.686C176.251 199.926 178.891 201.686 181.931 202.966C184.971 204.246 188.251 204.886 191.771 204.886L216.251 204.886L217.403 202.582L201.755 202.582Z"/>
<path d="M256.475 213.91C252.443 213.91 248.795 213.398 245.531 212.374C242.267 211.35 239.483 209.814 237.179 207.766C234.875 205.718 233.099 203.126 231.851 199.99C230.603 196.854 229.979 193.174 229.979 188.95L229.979 148.246L250.427 148.246L250.427 188.086C250.427 190.326 250.891 192.038 251.819 193.222C252.747 194.406 254.299 194.998 256.475 194.998C258.651 194.998 260.203 194.406 261.131 193.222C262.059 192.038 262.523 190.326 262.523 188.086L262.523 148.246L283.067 148.246L283.067 188.95C283.067 193.174 282.443 196.854 281.195 199.99C279.947 203.126 278.155 205.718 275.819 207.766C273.483 209.814 270.683 211.35 267.419 212.374C264.155 213.398 260.507 213.91 256.475 213.91ZM256.475 202.39C246.875 202.39 242.075 197.686 242.075 188.278L242.075 155.926L239.579 155.926L239.579 188.278C239.579 193.654 241.035 197.766 243.947 200.614C246.859 203.462 251.035 204.886 256.475 204.886C261.915 204.886 266.107 203.462 269.051 200.614C271.995 197.766 273.467 193.654 273.467 188.278L273.467 155.926L270.875 155.926L270.875 188.278C270.875 197.686 266.075 202.39 256.475 202.39Z"/>
<path d="M344.891 165.046L327.227 165.046L333.755 148.246L374.747 148.246L352.475 195.478L373.499 195.478L367.067 212.278L322.619 212.278L344.891 165.046ZM362.075 204.598L363.035 202.294L339.707 202.294L361.595 155.926L338.747 155.926L337.883 158.23L357.659 158.23L335.771 204.598L362.075 204.598Z"/>
<path d="M377.627 148.246L399.323 148.246L399.323 212.278L377.627 212.278L377.627 148.246ZM389.723 204.598L389.723 155.926L387.227 155.926L387.227 204.598L389.723 204.598Z"/>
<path d="M414.491 165.046L402.683 165.046L402.683 148.246L447.419 148.246L447.419 165.046L435.611 165.046L435.611 212.278L414.491 212.278L414.491 165.046ZM426.299 204.598L426.299 158.23L440.027 158.23L440.027 155.926L410.075 155.926L410.075 158.23L423.803 158.23L423.803 204.598L426.299 204.598Z"/>
</g>
<radialGradient cx="0" cy="0" gradientTransform="matrix(294.709 -0.0467524 0.0467524 294.709 154.21 182.325)" gradientUnits="userSpaceOnUse" id="RadialGradient_3" r="1">
<stop offset="0.0826867" stop-color="#ca00d5"/>
<stop offset="1" stop-color="#35008a"/>
</radialGradient>
</defs>
<g id="Calque-2" vectornator:layerName="Calque 2">
<g opacity="1" vectornator:layerName="Question Mark">
<path d="M310.856 76.9375C310.856 76.9375 307.161 79.1542 306.044 82.125C304.928 85.0958 306.232 88.5604 305.494 91.4688C304.684 94.6661 302.772 95.0625 302.772 95.0625C302.772 95.0625 301.074 95.4111 299.858 94.8125C298.954 94.3677 298.461 93.1224 298.428 92.375C298.369 91.0403 299.858 89.9062 299.858 89.9062C299.858 89.9062 295.493 91.2736 293.836 94.125C292.179 96.9764 292.901 101.5 292.901 101.5C292.901 101.5 293.832 105.159 292.214 106.469C291.294 107.213 289.937 107.192 288.282 105.375C286.939 103.901 286.22 103.167 284.762 102.906C283.305 102.645 282.233 104.563 282.233 104.562C282.233 104.562 283.389 104.484 284.212 105.656C285.036 106.829 285.499 107.559 285.56 109.531C285.683 113.533 284.961 118.041 286.77 123.844C287.704 126.843 292.267 131.876 295.183 134.562C297.728 136.906 302.68 138.66 307.227 139.25C315.037 140.263 323.195 133.83 326.749 128.969C330.304 124.107 329.997 119.819 332.138 116.219C334.28 112.619 336.07 113.594 336.07 113.594C336.07 113.594 334.676 111.619 332.138 111.812C329.601 112.006 328.886 115.896 326.859 115.469C325.32 115.144 324.526 114.349 324.164 112.344C323.803 110.339 325.182 107.313 325.182 107.312C325.182 107.312 326.304 102.719 325.374 100.719C323.594 96.8891 319.518 95.8437 319.518 95.8438C319.518 95.8438 320.864 98.0489 320.562 99.5938C320.386 100.5 319.68 101.657 318.583 101.844C317.364 102.051 315.733 101.164 315.448 99.875C314.906 97.4252 316.743 95.2509 315.586 91.2812C314.428 87.3116 312.753 87.7869 310.196 82.6875C308.596 79.4958 310.856 76.9375 310.856 76.9375ZM309.097 94.5C309.097 94.5 307.56 96.1797 308.629 98.3125C310.337 101.72 311.458 101.441 312.231 104.094C313.005 106.746 311.786 108.175 312.149 109.812C312.339 110.674 313.424 111.263 314.238 111.125C314.972 111 315.44 110.231 315.558 109.625C315.76 108.593 314.871 107.125 314.871 107.125C314.871 107.125 317.613 107.816 318.803 110.375C319.424 111.712 318.665 114.781 318.665 114.781C318.665 114.781 317.736 116.785 317.978 118.125C318.22 119.465 318.764 120.002 319.793 120.219C321.147 120.504 321.617 117.942 323.312 117.812C325.008 117.683 325.952 119 325.952 119C325.952 119 324.743 118.313 323.312 120.719C321.881 123.124 322.085 126.002 319.71 129.25C317.335 132.498 311.868 136.802 306.649 136.125C303.611 135.731 300.321 134.566 298.62 133C296.671 131.205 293.608 127.848 292.984 125.844C291.775 121.966 292.268 118.955 292.186 116.281C292.146 114.963 291.829 114.471 291.279 113.688C290.729 112.904 289.959 112.938 289.959 112.938C289.959 112.938 290.662 111.669 291.636 111.844C292.61 112.018 293.104 112.515 294.001 113.5C295.107 114.714 296.026 114.716 296.641 114.219C297.722 113.343 297.081 110.906 297.081 110.906C297.081 110.906 296.606 107.874 297.713 105.969C298.82 104.063 301.728 103.156 301.728 103.156C301.727 103.156 300.726 103.889 300.765 104.781C300.787 105.281 301.124 106.14 301.728 106.438C302.54 106.838 303.68 106.594 303.68 106.594C303.68 106.594 304.953 106.355 305.494 104.219C305.987 102.275 305.106 99.9539 305.852 97.9688C306.598 95.9836 309.097 94.5 309.097 94.5Z" fill="url(#RadialGradient)" fill-rule="nonzero" opacity="1" stroke="none" vectornator:layerName="Courbe 3"/>
<path d="M320.812 144.594C318.408 144.079 317.392 147.986 308.938 148.125C298.638 148.294 300.434 145.74 296.656 146.406C292.879 147.072 293.751 152.511 293.344 155.125C292.47 159.769 291.562 163.442 291.125 165.312C290.688 167.183 290.069 168.973 289.25 170.844C288.431 172.65 287.232 174.713 285.594 176.906C283.956 179.164 281.793 181.722 279.062 184.625C269.179 195.01 262.416 202.426 258.594 206.812C254.826 211.199 252.066 216.562 249.281 222.625C246.496 228.624 246.374 232.355 245.688 242C245.688 242 244.975 258.134 255.406 274.562C258.487 279.414 258.721 295.309 264 301.188C269.279 307.066 268.02 302.451 276.531 298.094C278.362 297.157 279.404 296.551 282.031 297.938C284.658 299.324 284.564 302.13 287.031 303.625C289.031 304.837 290.608 303.374 293.156 305.125C295.704 306.876 297.219 310.625 297.219 310.625C297.219 310.625 301.597 323.674 305.344 322.719C310.59 321.382 310.49 301.359 319.25 298.688C321.132 298.114 322.686 299.761 326.031 300.25C329.376 300.739 332.257 297.934 332.625 300.625C333.284 305.438 329.791 311.023 333.906 310.125C336.918 309.468 340.097 305.528 345.188 292.719C347.492 286.919 350.657 280.403 353.469 274.875C354.178 273.764 354.918 272.752 355.594 271.469C355.801 271.076 357.743 267.245 358.844 266.25C359.945 265.255 359.656 266.476 360 267.5C360.959 270.355 363.913 269.577 364.719 267.594C366.622 262.907 362.063 263.646 364.875 249.438C365.374 246.918 366.631 245.062 365.906 244.031C365.596 243.59 365.243 244.14 364.312 244.125C363.382 244.11 362.577 243.8 361.594 244.062C360.369 244.39 358.264 245.927 355.312 245.688C350.853 245.326 347.996 242.538 345.188 242.031C342.666 241.576 342.187 243.452 339.5 242.031C336.813 240.61 337.521 238.314 336.094 237.875C334.881 237.502 333.231 239.303 333.125 239.719C330.286 249.91 326.744 257.213 322.594 262.438C318.444 267.662 311.916 270.312 303.125 270.312C295.644 270.313 289.5 267.725 284.75 262.5C280 257.275 277.594 250.891 277.594 243.344C277.594 239.474 278.354 235.852 279.938 232.562C281.466 229.208 283.394 226.24 285.688 223.531C287.981 220.822 291.617 216.821 296.75 211.531C302.593 205.468 307.247 200.261 310.688 195.875C314.128 191.489 316.894 186.399 318.969 180.594C321.044 174.788 322.094 167.872 322.094 159.938C322.094 153.616 325.368 147.343 321.969 145.125C321.544 144.848 321.156 144.667 320.812 144.594Z" fill="url(#RadialGradient_2)" fill-rule="nonzero" opacity="1" stroke="none" vectornator:layerName="Courbe 4"/>
</g>
<g opacity="1" vectornator:layerName="Texte 1">
<use fill="url(#RadialGradient_3)" stroke="none" xlink:href="#Fill"/>
<mask height="658.524" id="StrokeMask" maskUnits="userSpaceOnUse" width="880.956" x="-137.875" y="-148.952">
<rect fill="#ffffff" height="658.524" stroke="none" width="880.956" x="-137.875" y="-148.952"/>
<use fill="#000000" fill-rule="evenodd" stroke="none" xlink:href="#Fill"/>
</mask>
<use fill="none" mask="url(#StrokeMask)" stroke="#ffffff" stroke-linecap="butt" stroke-linejoin="miter" stroke-width="4.02" xlink:href="#Fill"/>
</g>
</g>
</svg>
