<?xml version="1.0" encoding="UTF-8" standalone="no"?>
<!DOCTYPE svg PUBLIC "-//W3C//DTD SVG 1.1//EN" "http://www.w3.org/Graphics/SVG/1.1/DTD/svg11.dtd">
<!-- Created with Vectornator (http://vectornator.io/) -->
<svg height="100%" stroke-miterlimit="10" style="fill-rule:nonzero;clip-rule:evenodd;stroke-linecap:round;stroke-linejoin:round;" version="1.1" viewBox="245.677 76.9375 120.449 245.831" width="100%" xml:space="preserve" xmlns="http://www.w3.org/2000/svg" xmlns:vectornator="http://vectornator.io" xmlns:xlink="http://www.w3.org/1999/xlink">
<defs>
<radialGradient cx="0" cy="0" gradientTransform="matrix(-0.319613 -33.9757 26.3037 -0.319613 308.236 109.464)" gradientUnits="userSpaceOnUse" id="RadialGradient" r="1">
<stop offset="0.0826867" stop-color="#ca00d5"/>
<stop offset="1" stop-color="#35008a"/>
</radialGradient>
<radialGradient cx="0" cy="0" gradientTransform="matrix(3.42711 -68.8412 68.8412 3.42711 306.042 237.975)" gradientUnits="userSpaceOnUse" id="RadialGradient_2" r="1">
<stop offset="0.0826867" stop-color="#ca00d5"/>
<stop offset="1" stop-color="#35008a"/>
</radialGradient>
</defs>
<clipPath id="ArtboardFrame">
<rect height="245.831" width="120.449" x="245.677" y="76.9375"/>
</clipPath>
<g clip-path="url(#ArtboardFrame)" id="Layer" vectornator:layerName="Layer">
<g opacity="1" vectornator:layerName="Question Mark">
<path d="M310.856 76.9375C310.856 76.9375 307.161 79.1542 306.044 82.125C304.928 85.0958 306.232 88.5604 305.494 91.4688C304.684 94.6661 302.772 95.0625 302.772 95.0625C302.772 95.0625 301.074 95.4111 299.858 94.8125C298.954 94.3677 298.461 93.1224 298.428 92.375C298.369 91.0403 299.858 89.9062 299.858 89.9062C299.858 89.9062 295.493 91.2736 293.836 94.125C292.179 96.9764 292.901 101.5 292.901 101.5C292.901 101.5 293.832 105.159 292.214 106.469C291.294 107.213 289.937 107.192 288.282 105.375C286.939 103.901 286.22 103.167 284.762 102.906C283.305 102.645 282.233 104.563 282.233 104.562C282.233 104.562 283.389 104.484 284.212 105.656C285.036 106.829 285.499 107.559 285.56 109.531C285.683 113.533 284.961 118.041 286.77 123.844C287.704 126.843 292.267 131.876 295.183 134.562C297.728 136.906 302.68 138.66 307.227 139.25C315.037 140.263 323.195 133.83 326.749 128.969C330.304 124.107 329.997 119.819 332.138 116.219C334.28 112.619 336.07 113.594 336.07 113.594C336.07 113.594 334.676 111.619 332.138 111.812C329.601 112.006 328.886 115.896 326.859 115.469C325.32 115.144 324.526 114.349 324.164 112.344C323.803 110.339 325.182 107.313 325.182 107.312C325.182 107.312 326.304 102.719 325.374 100.719C323.594 96.8891 319.518 95.8437 319.518 95.8438C319.518 95.8438 320.864 98.0489 320.562 99.5938C320.386 100.5 319.68 101.657 318.583 101.844C317.364 102.051 315.733 101.164 315.448 99.875C314.906 97.4252 316.743 95.2509 315.586 91.2812C314.428 87.3116 312.753 87.7869 310.196 82.6875C308.596 79.4958 310.856 76.9375 310.856 76.9375ZM309.097 94.5C309.097 94.5 307.56 96.1797 308.629 98.3125C310.337 101.72 311.458 101.441 312.231 104.094C313.005 106.746 311.786 108.175 312.149 109.812C312.339 110.674 313.424 111.263 314.238 111.125C314.972 111 315.44 110.231 315.558 109.625C315.76 108.593 314.871 107.125 314.871 107.125C314.871 107.125 317.613 107.816 318.803 110.375C319.424 111.712 318.665 114.781 318.665 114.781C318.665 114.781 317.736 116.785 317.978 118.125C318.22 119.465 318.764 120.002 319.793 120.219C321.147 120.504 321.617 117.942 323.312 117.812C325.008 117.683 325.952 119 325.952 119C325.952 119 324.743 118.313 323.312 120.719C321.881 123.124 322.085 126.002 319.71 129.25C317.335 132.498 311.868 136.802 306.649 136.125C303.611 135.731 300.321 134.566 298.62 133C296.671 131.205 293.608 127.848 292.984 125.844C291.775 121.966 292.268 118.955 292.186 116.281C292.146 114.963 291.829 114.471 291.279 113.688C290.729 112.904 289.959 112.938 289.959 112.938C289.959 112.938 290.662 111.669 291.636 111.844C292.61 112.018 293.104 112.515 294.001 113.5C295.107 114.714 296.026 114.716 296.641 114.219C297.722 113.343 297.081 110.906 297.081 110.906C297.081 110.906 296.606 107.874 297.713 105.969C298.82 104.063 301.728 103.156 301.728 103.156C301.727 103.156 300.726 103.889 300.765 104.781C300.787 105.281 301.124 106.14 301.728 106.438C302.54 106.838 303.68 106.594 303.68 106.594C303.68 106.594 304.953 106.355 305.494 104.219C305.987 102.275 305.106 99.9539 305.852 97.9688C306.598 95.9836 309.097 94.5 309.097 94.5Z" fill="url(#RadialGradient)" fill-rule="nonzero" opacity="1" stroke="none" vectornator:layerName="Courbe 3"/>
<path d="M320.812 144.594C318.408 144.079 317.392 147.986 308.938 148.125C298.638 148.294 300.434 145.74 296.656 146.406C292.879 147.072 293.751 152.511 293.344 155.125C292.47 159.769 291.562 163.442 291.125 165.312C290.688 167.183 290.069 168.973 289.25 170.844C288.431 172.65 287.232 174.713 285.594 176.906C283.956 179.164 281.793 181.722 279.062 184.625C269.179 195.01 262.416 202.426 258.594 206.812C254.826 211.199 252.066 216.562 249.281 222.625C246.496 228.624 246.374 232.355 245.688 242C245.688 242 244.975 258.134 255.406 274.562C258.487 279.414 258.721 295.309 264 301.188C269.279 307.066 268.02 302.451 276.531 298.094C278.362 297.157 279.404 296.551 282.031 297.938C284.658 299.324 284.564 302.13 287.031 303.625C289.031 304.837 290.608 303.374 293.156 305.125C295.704 306.876 297.219 310.625 297.219 310.625C297.219 310.625 301.597 323.674 305.344 322.719C310.59 321.382 310.49 301.359 319.25 298.688C321.132 298.114 322.686 299.761 326.031 300.25C329.376 300.739 332.257 297.934 332.625 300.625C333.284 305.438 329.791 311.023 333.906 310.125C336.918 309.468 340.097 305.528 345.188 292.719C347.492 286.919 350.657 280.403 353.469 274.875C354.178 273.764 354.918 272.752 355.594 271.469C355.801 271.076 357.743 267.245 358.844 266.25C359.945 265.255 359.656 266.476 360 267.5C360.959 270.355 363.913 269.577 364.719 267.594C366.622 262.907 362.063 263.646 364.875 249.438C365.374 246.918 366.631 245.062 365.906 244.031C365.596 243.59 365.243 244.14 364.312 244.125C363.382 244.11 362.577 243.8 361.594 244.062C360.369 244.39 358.264 245.927 355.312 245.688C350.853 245.326 347.996 242.538 345.188 242.031C342.666 241.576 342.187 243.452 339.5 242.031C336.813 240.61 337.521 238.314 336.094 237.875C334.881 237.502 333.231 239.303 333.125 239.719C330.286 249.91 326.744 257.213 322.594 262.438C318.444 267.662 311.916 270.312 303.125 270.312C295.644 270.313 289.5 267.725 284.75 262.5C280 257.275 277.594 250.891 277.594 243.344C277.594 239.474 278.354 235.852 279.938 232.562C281.466 229.208 283.394 226.24 285.688 223.531C287.981 220.822 291.617 216.821 296.75 211.531C302.593 205.468 307.247 200.261 310.688 195.875C314.128 191.489 316.894 186.399 318.969 180.594C321.044 174.788 322.094 167.872 322.094 159.938C322.094 153.616 325.368 147.343 321.969 145.125C321.544 144.848 321.156 144.667 320.812 144.594Z" fill="url(#RadialGradient_2)" fill-rule="nonzero" opacity="1" stroke="none" vectornator:layerName="Courbe 4"/>
</g>
</g>
</svg>
